<svg width="27" height="27" viewBox="0 0 27 27" fill="none" xmlns="http://www.w3.org/2000/svg">
<rect x="0.5" y="0.5" width="26" height="26" rx="7.5" fill="#C46A2B"/>
<rect x="0.5" y="0.5" width="26" height="26" rx="7.5" stroke="#DEE2EB"/>
<path fill-rule="evenodd" clip-rule="evenodd" d="M7.66666 8.66667C7.66666 8.48986 7.7369 8.32029 7.86193 8.19526C7.98695 8.07024 8.15652 8 8.33333 8H9.33333C9.48653 8 9.63506 8.05276 9.75392 8.1494C9.87279 8.24605 9.95474 8.38069 9.986 8.53067L10.2927 10H17.6667C17.7658 10 17.8636 10.0221 17.9531 10.0647C18.0426 10.1072 18.1214 10.1692 18.1839 10.2461C18.2464 10.323 18.291 10.4128 18.3145 10.5091C18.3379 10.6054 18.3395 10.7057 18.3193 10.8027L17.486 14.8027C17.4547 14.9526 17.3728 15.0873 17.2539 15.1839C17.1351 15.2806 16.9865 15.3333 16.8333 15.3333H11.4033L11.542 16H16.3333C16.7578 16.0002 17.1713 16.1355 17.5138 16.3863C17.8563 16.6371 18.1101 16.9903 18.2386 17.3949C18.367 17.7996 18.3633 18.2345 18.2281 18.6369C18.093 19.0393 17.8332 19.3883 17.4866 19.6333C17.1399 19.8783 16.7242 20.0066 16.2998 19.9997C15.8753 19.9928 15.4641 19.8511 15.1256 19.5949C14.787 19.3388 14.5388 18.9816 14.4167 18.575C14.2947 18.1684 14.3052 17.7336 14.4467 17.3333H12.8867C13.0164 17.7011 13.0358 18.0989 12.9425 18.4775C12.8491 18.8562 12.6471 19.1994 12.3612 19.4647C12.0753 19.73 11.7181 19.906 11.3336 19.9709C10.949 20.0358 10.5538 19.9869 10.1967 19.8301C9.83954 19.6733 9.53605 19.4155 9.32354 19.0885C9.11104 18.7614 8.99881 18.3794 9.00065 17.9894C9.00249 17.5993 9.11833 17.2184 9.33391 16.8933C9.54949 16.5683 9.85541 16.3134 10.214 16.16L8.79066 9.33333H8.33333C8.15652 9.33333 7.98695 9.2631 7.86193 9.13807C7.7369 9.01305 7.66666 8.84348 7.66666 8.66667Z" fill="#DEE2EB"/>
</svg>
